<?xml version="1.0" encoding="iso-8859-1"?>
<!-- Generator: Adobe Illustrator 19.0.0, SVG Export Plug-In . SVG Version: 6.00 Build 0)  -->
<svg version="1.1" id="Layer_1" xmlns="http://www.w3.org/2000/svg" xmlns:xlink="http://www.w3.org/1999/xlink" x="0px" y="0px"
	 viewBox="0 0 512 512" style="enable-background:new 0 0 512 512;" xml:space="preserve">
<circle style="fill:#7383BF;" cx="256" cy="255.991" r="255.991"/>
<path style="fill:#424A60;" d="M510.836,280.437C498.54,410.348,389.154,512,256,512c-9.236,0-18.344-0.513-27.342-1.466l-96.1-96.1
	L379.46,149.061L510.836,280.437z"/>
<polygon style="fill:#F7F7F7;" points="132.559,97.566 327.965,97.566 379.46,149.061 379.46,414.434 132.559,414.434 "/>
<polygon style="fill:#EBECEC;" points="353.712,123.313 379.46,149.061 379.46,414.434 132.559,414.434 "/>
<polygon style="fill:#FA7876;" points="132.559,97.566 327.965,97.566 379.46,149.061 379.46,173.837 132.559,173.837 "/>
<polygon style="fill:#EBECEC;" points="327.965,97.566 327.965,149.061 379.46,149.061 "/>
<g>
	<path style="fill:#FFFFFF;" d="M178.867,142.06l8.741,2.694c-1.338,4.93-3.574,8.576-6.707,10.977
		c-3.115,2.382-7.074,3.573-11.875,3.573c-5.938,0-10.83-2.034-14.661-6.084c-3.812-4.068-5.736-9.621-5.736-16.658
		c0-7.459,1.924-13.249,5.773-17.373c3.83-4.105,8.906-6.176,15.174-6.176c5.461,0,9.914,1.631,13.323,4.856
		c2.052,1.924,3.574,4.673,4.581,8.265l-8.925,2.126c-0.531-2.309-1.631-4.142-3.317-5.498c-1.686-1.338-3.72-1.997-6.121-1.997
		c-3.317,0-6.011,1.173-8.082,3.574c-2.071,2.364-3.097,6.212-3.097,11.545c0,5.644,1.026,9.676,3.042,12.077
		c2.052,2.401,4.691,3.592,7.953,3.592c2.401,0,4.471-0.751,6.194-2.291C176.87,147.741,178.116,145.341,178.867,142.06z
		 M192.996,144.058l8.815-0.861c0.531,2.932,1.594,5.095,3.207,6.487c1.613,1.374,3.775,2.071,6.524,2.071
		c2.895,0,5.076-0.623,6.542-1.851s2.217-2.657,2.217-4.307c0-1.063-0.312-1.961-0.935-2.712c-0.605-0.733-1.686-1.374-3.225-1.924
		c-1.063-0.367-3.464-1.026-7.202-1.961c-4.82-1.21-8.21-2.676-10.152-4.453c-2.749-2.456-4.105-5.461-4.105-9.016
		c0-2.272,0.641-4.435,1.924-6.414c1.301-1.997,3.152-3.5,5.571-4.545c2.419-1.045,5.351-1.558,8.778-1.558
		c5.589,0,9.804,1.246,12.626,3.72c2.84,2.492,4.307,5.809,4.453,9.969l-9.053,0.312c-0.385-2.309-1.209-3.977-2.474-4.985
		c-1.246-1.008-3.152-1.521-5.663-1.521c-2.602,0-4.655,0.55-6.121,1.631c-0.935,0.696-1.411,1.613-1.411,2.785
		c0,1.063,0.44,1.961,1.338,2.712c1.136,0.971,3.885,1.979,8.283,3.005c4.38,1.045,7.605,2.126,9.713,3.225
		c2.089,1.118,3.738,2.621,4.93,4.545s1.778,4.307,1.778,7.129c0,2.566-0.715,4.966-2.126,7.202
		c-1.429,2.236-3.445,3.903-6.047,4.985c-2.602,1.1-5.846,1.649-9.731,1.649c-5.663,0-10.006-1.301-13.03-3.922
		C195.397,152.854,193.583,149.042,192.996,144.058z M234.669,144.058l8.815-0.861c0.531,2.932,1.576,5.095,3.207,6.487
		c1.613,1.374,3.775,2.071,6.524,2.071c2.895,0,5.076-0.623,6.542-1.851c1.466-1.228,2.217-2.657,2.217-4.307
		c0-1.063-0.312-1.961-0.935-2.712c-0.623-0.733-1.704-1.374-3.244-1.924c-1.045-0.367-3.445-1.026-7.184-1.961
		c-4.82-1.21-8.21-2.676-10.152-4.453c-2.749-2.456-4.105-5.461-4.105-9.016c0-2.272,0.641-4.435,1.924-6.414
		c1.283-1.997,3.152-3.5,5.571-4.545c2.419-1.045,5.333-1.558,8.778-1.558c5.589,0,9.804,1.246,12.626,3.72
		c2.84,2.492,4.307,5.809,4.453,9.969l-9.053,0.312c-0.385-2.309-1.21-3.977-2.474-4.985c-1.246-1.008-3.152-1.521-5.663-1.521
		c-2.602,0-4.655,0.55-6.121,1.631c-0.935,0.696-1.429,1.613-1.429,2.785c0,1.063,0.458,1.961,1.356,2.712
		c1.136,0.971,3.885,1.979,8.265,3.005c4.38,1.045,7.623,2.126,9.713,3.225c2.107,1.118,3.757,2.621,4.948,4.545
		c1.191,1.924,1.778,4.307,1.778,7.129c0,2.566-0.715,4.966-2.144,7.202c-1.411,2.236-3.427,3.903-6.029,4.985
		c-2.602,1.1-5.846,1.649-9.731,1.649c-5.663,0-10.006-1.301-13.03-3.922C237.07,152.854,235.255,149.042,234.669,144.058z"/>
	<path style="fill:#857E8A;" d="M153.743,279.741v-7.312c1.484-0.073,2.602-0.293,3.372-0.678c0.751-0.348,1.393-0.971,1.943-1.833
		c0.55-0.861,0.916-1.943,1.136-3.244c0.147-0.99,0.238-2.676,0.238-5.113c0-3.94,0.183-6.689,0.55-8.265
		c0.367-1.558,1.026-2.804,1.979-3.757c0.953-0.935,2.346-1.686,4.178-2.236c1.228-0.367,3.189-0.55,5.864-0.55h1.613v7.312
		c-2.272,0-3.72,0.128-4.362,0.385c-0.641,0.257-1.118,0.641-1.429,1.155c-0.312,0.513-0.458,1.411-0.458,2.657
		c0,1.283-0.092,3.72-0.257,7.294c-0.092,2.016-0.367,3.647-0.788,4.911c-0.421,1.246-0.971,2.272-1.631,3.097
		c-0.66,0.806-1.668,1.649-3.024,2.529c1.191,0.678,2.181,1.503,2.95,2.419c0.77,0.935,1.356,2.052,1.759,3.372
		c0.421,1.338,0.678,3.115,0.806,5.333c0.11,3.372,0.183,5.534,0.183,6.469c0,1.338,0.165,2.291,0.495,2.822
		c0.312,0.513,0.806,0.916,1.466,1.191c0.66,0.275,2.089,0.422,4.288,0.422v7.312h-1.613c-2.749,0-4.856-0.22-6.322-0.66
		c-1.466-0.44-2.694-1.173-3.702-2.181c-1.008-1.026-1.686-2.272-2.034-3.775c-0.33-1.484-0.513-3.867-0.513-7.074
		c0-3.738-0.165-6.176-0.495-7.294c-0.44-1.631-1.118-2.804-2.034-3.5C157.005,280.254,155.612,279.851,153.743,279.741z
		 M176.119,293.064l11.124-46.254h6.432l-11.179,46.254H176.119z M195.049,283.186l8.613-1.319c0.367,1.668,1.118,2.914,2.236,3.775
		s2.694,1.283,4.691,1.283c2.217,0,3.885-0.403,5.021-1.209c0.751-0.568,1.118-1.338,1.118-2.309c0-0.641-0.202-1.191-0.605-1.613
		c-0.44-0.403-1.393-0.788-2.877-1.136c-6.927-1.521-11.307-2.914-13.158-4.178c-2.566-1.759-3.848-4.197-3.848-7.312
		c0-2.822,1.1-5.186,3.335-7.11c2.217-1.906,5.644-2.859,10.299-2.859c4.435,0,7.733,0.715,9.896,2.162
		c2.162,1.466,3.647,3.61,4.453,6.451l-8.063,1.503c-0.33-1.264-1.008-2.254-1.979-2.932c-0.953-0.678-2.346-1.008-4.142-1.008
		c-2.272,0-3.903,0.312-4.893,0.953c-0.66,0.44-0.971,1.026-0.971,1.741c0,0.605,0.275,1.136,0.843,1.558
		c0.788,0.568,3.464,1.374,8.045,2.419s7.788,2.309,9.584,3.812c1.814,1.521,2.712,3.665,2.712,6.396
		c0,2.969-1.246,5.516-3.738,7.66c-2.474,2.126-6.157,3.207-11.032,3.207c-4.416,0-7.917-0.898-10.482-2.676
		C197.523,288.665,195.837,286.246,195.049,283.186z M247.662,259.876v6.817h-5.864v13.121c0,2.676,0.055,4.215,0.165,4.655
		c0.11,0.44,0.367,0.806,0.77,1.1c0.403,0.275,0.88,0.421,1.448,0.421c0.806,0,1.943-0.275,3.464-0.825l0.715,6.671
		c-1.997,0.861-4.233,1.283-6.762,1.283c-1.539,0-2.932-0.257-4.16-0.788c-1.246-0.513-2.144-1.191-2.731-2.016
		c-0.568-0.825-0.971-1.943-1.209-3.354c-0.165-1.008-0.257-3.024-0.257-6.084v-14.184h-3.94v-6.817h3.94v-6.432l8.558-5.058v11.49
		H247.662z M249.549,259.876h9.108l7.788,22.999l7.587-22.999h8.87l-11.435,31.209l-2.052,5.644
		c-0.77,1.869-1.484,3.317-2.162,4.307c-0.678,0.99-1.466,1.814-2.364,2.419c-0.88,0.623-1.979,1.1-3.28,1.448
		c-1.283,0.348-2.749,0.531-4.398,0.531c-1.631,0-3.262-0.183-4.856-0.531l-0.751-6.689c1.338,0.275,2.566,0.403,3.647,0.403
		c1.998,0,3.482-0.586,4.435-1.759c0.953-1.173,1.704-2.676,2.217-4.49L249.549,259.876z M288.418,292.312v-44.751h8.558v44.751
		H288.418z M324.52,282.05l8.558,1.448c-1.081,3.134-2.822,5.516-5.186,7.165c-2.382,1.631-5.351,2.456-8.906,2.456
		c-5.626,0-9.804-1.851-12.498-5.534c-2.144-2.95-3.207-6.689-3.207-11.197c0-5.369,1.411-9.584,4.215-12.626
		c2.785-3.06,6.341-4.563,10.629-4.563c4.82,0,8.613,1.576,11.417,4.765c2.767,3.189,4.105,8.082,3.977,14.66h-21.423
		c0.055,2.547,0.751,4.526,2.071,5.938c1.301,1.411,2.95,2.126,4.911,2.126c1.338,0,2.474-0.367,3.372-1.1
		C323.365,284.854,324.061,283.681,324.52,282.05z M325.033,273.364c-0.073-2.474-0.715-4.38-1.924-5.663
		c-1.228-1.301-2.694-1.961-4.453-1.961c-1.851,0-3.409,0.696-4.618,2.052c-1.21,1.374-1.814,3.244-1.796,5.571H325.033z
		 M358.275,279.741c-1.484,0.092-2.602,0.312-3.354,0.678c-0.77,0.367-1.411,0.99-1.943,1.851s-0.916,1.943-1.155,3.244
		c-0.147,0.971-0.238,2.676-0.238,5.076c0,3.94-0.183,6.707-0.531,8.283c-0.348,1.558-1.008,2.822-1.961,3.757
		c-0.953,0.953-2.364,1.686-4.215,2.236c-1.228,0.367-3.189,0.568-5.864,0.568h-1.613v-7.312c2.181,0,3.61-0.147,4.288-0.422
		c0.678-0.275,1.173-0.66,1.484-1.191c0.33-0.513,0.476-1.393,0.495-2.639c0-1.246,0.092-3.61,0.238-7.11
		c0.092-2.126,0.367-3.812,0.825-5.095c0.44-1.283,1.026-2.364,1.778-3.244c0.751-0.88,1.686-1.649,2.84-2.327
		c-1.484-0.99-2.584-1.943-3.28-2.877c-0.953-1.338-1.613-3.042-1.961-5.131c-0.22-1.411-0.367-4.545-0.458-9.383
		c-0.018-1.521-0.147-2.547-0.421-3.06c-0.238-0.495-0.696-0.898-1.374-1.155c-0.66-0.293-2.144-0.421-4.453-0.421v-7.312h1.613
		c2.749,0,4.856,0.22,6.322,0.641c1.466,0.44,2.694,1.155,3.683,2.181c1.008,1.026,1.686,2.291,2.034,3.793
		c0.348,1.484,0.531,3.848,0.531,7.074c0,3.72,0.165,6.139,0.458,7.294c0.458,1.631,1.136,2.785,2.034,3.482
		c0.916,0.715,2.327,1.118,4.197,1.209V279.741z"/>
</g>
<g>
</g>
<g>
</g>
<g>
</g>
<g>
</g>
<g>
</g>
<g>
</g>
<g>
</g>
<g>
</g>
<g>
</g>
<g>
</g>
<g>
</g>
<g>
</g>
<g>
</g>
<g>
</g>
<g>
</g>
</svg>
