<?xml version="1.0" encoding="iso-8859-1"?>
<!-- Generator: Adobe Illustrator 19.0.0, SVG Export Plug-In . SVG Version: 6.00 Build 0)  -->
<svg version="1.1" id="Layer_1" xmlns="http://www.w3.org/2000/svg" xmlns:xlink="http://www.w3.org/1999/xlink" x="0px" y="0px"
	 viewBox="0 0 512 512" style="enable-background:new 0 0 512 512;" xml:space="preserve">
<circle style="fill:#7383BF;" cx="256" cy="256" r="256"/>
<path style="fill:#424A60;" d="M510.833,280.439C498.521,410.357,389.136,512,256,512c-9.238,0-18.359-0.5-27.346-1.456
	l-96.101-96.107L379.448,149.06L510.833,280.439z"/>
<polygon style="fill:#F8F8F8;" points="132.552,97.563 327.957,97.563 379.448,149.054 379.448,414.437 132.552,414.437 "/>
<polygon style="fill:#5ED1B3;" points="132.552,97.563 327.957,97.563 379.448,149.054 379.448,173.833 132.552,173.833 "/>
<polygon style="fill:#EBECEC;" points="327.957,97.563 327.957,149.054 379.448,149.054 "/>
<path style="fill:#F8F8F8;" d="M166.302,113.827h9.06v28.341c0,3.707-0.322,6.559-0.978,8.56c-0.873,2.601-2.462,4.697-4.758,6.275
	c-2.296,1.573-5.325,2.368-9.093,2.368c-4.413,0-7.809-1.228-10.183-3.696c-2.384-2.468-3.579-6.092-3.602-10.861l8.56-1
	c0.106,2.551,0.467,4.352,1.112,5.403c0.973,1.606,2.44,2.407,4.419,2.407c1.984,0,3.402-0.573,4.224-1.729
	c0.823-1.145,1.239-3.529,1.239-7.153V113.827z M184.994,158.559v-44.732h14.479c5.492,0,9.06,0.217,10.727,0.667
	c2.562,0.678,4.702,2.134,6.436,4.385c1.729,2.246,2.59,5.152,2.59,8.71c0,2.751-0.5,5.052-1.49,6.926
	c-1,1.873-2.257,3.346-3.791,4.419c-1.529,1.062-3.09,1.768-4.674,2.112c-2.157,0.428-5.269,0.645-9.349,0.645h-5.869v16.869
	H184.994z M194.054,121.386v12.745h4.919c3.552,0,5.914-0.239,7.115-0.706c1.195-0.472,2.134-1.201,2.812-2.212
	c0.678-0.995,1.017-2.157,1.017-3.485c0-1.634-0.478-2.979-1.423-4.041c-0.962-1.062-2.157-1.729-3.624-2.001
	c-1.073-0.195-3.229-0.3-6.475-0.3H194.054z M247.468,142.129v-7.559h19.426v17.842c-1.884,1.845-4.619,3.457-8.215,4.863
	c-3.579,1.395-7.215,2.095-10.9,2.095c-4.674,0-8.749-0.978-12.228-2.946c-3.463-1.968-6.075-4.791-7.826-8.448
	c-1.751-3.652-2.623-7.643-2.623-11.939c0-4.669,0.978-8.81,2.924-12.445c1.956-3.624,4.813-6.414,8.571-8.348
	c2.874-1.49,6.436-2.229,10.7-2.229c5.553,0,9.894,1.167,13.017,3.496c3.113,2.346,5.125,5.564,6.02,9.682l-8.999,1.69
	c-0.622-2.195-1.806-3.935-3.552-5.219c-1.723-1.267-3.891-1.906-6.492-1.906c-3.941,0-7.07,1.251-9.393,3.763
	c-2.323,2.507-3.491,6.225-3.491,11.15c0,5.319,1.178,9.31,3.535,11.967c2.362,2.651,5.441,3.985,9.266,3.985
	c1.884,0,3.78-0.378,5.675-1.112c1.906-0.739,3.529-1.645,4.891-2.712v-5.669H247.468z"/>
<polygon style="fill:#857E8A;" points="180.319,207.399 331.681,207.399 331.681,358.76 180.319,358.76 "/>
<polygon style="fill:#5ED1B3;" points="192.069,221.973 319.925,221.973 319.925,319.742 192.069,319.742 "/>
<polygon style="fill:#FAD55C;" points="319.925,319.747 275.048,259.73 246.234,298.359 224.34,282.29 192.069,319.747 "/>
<circle style="fill:#F8F8F8;" cx="226.792" cy="247.507" r="14.101"/>
<g>
</g>
<g>
</g>
<g>
</g>
<g>
</g>
<g>
</g>
<g>
</g>
<g>
</g>
<g>
</g>
<g>
</g>
<g>
</g>
<g>
</g>
<g>
</g>
<g>
</g>
<g>
</g>
<g>
</g>
</svg>
