<?xml version="1.0" encoding="iso-8859-1"?>
<!-- Generator: Adobe Illustrator 19.0.0, SVG Export Plug-In . SVG Version: 6.00 Build 0)  -->
<svg version="1.1" id="Layer_1" xmlns="http://www.w3.org/2000/svg" xmlns:xlink="http://www.w3.org/1999/xlink" x="0px" y="0px"
	 viewBox="0 0 512 512" style="enable-background:new 0 0 512 512;" xml:space="preserve">
<circle style="fill:#7383BF;" cx="256" cy="255.991" r="255.991"/>
<path style="fill:#424A60;" d="M510.836,280.439C498.534,410.359,389.141,512,256.018,512c-9.24,0-18.358-0.508-27.353-1.452
	l-96.11-96.11l246.909-265.389L510.836,280.439z"/>
<polygon style="fill:#F7F7F7;" points="132.554,97.563 327.96,97.563 379.463,149.048 379.463,414.437 132.554,414.437 "/>
<polygon style="fill:#EBECEC;" points="353.72,123.306 379.463,149.048 379.463,414.437 132.554,414.437 "/>
<polygon style="fill:#2DAAE2;" points="132.554,97.563 327.96,97.563 379.463,149.048 379.463,173.828 132.554,173.828 "/>
<polygon style="fill:#EBECEC;" points="327.96,97.563 327.96,149.048 379.463,149.048 "/>
<g>
	<path style="fill:#FFFFFF;" d="M150.264,158.551v-44.73h14.473c5.495,0,9.065,0.228,10.728,0.665
		c2.555,0.683,4.708,2.135,6.44,4.393c1.715,2.24,2.59,5.145,2.59,8.715c0,2.748-0.508,5.04-1.488,6.93
		c-0.997,1.873-2.258,3.343-3.798,4.41c-1.523,1.05-3.098,1.768-4.673,2.118c-2.153,0.42-5.268,0.63-9.345,0.63h-5.88v16.87H150.264
		z M159.312,121.381v12.74h4.935c3.535,0,5.898-0.227,7.105-0.7c1.19-0.473,2.135-1.19,2.818-2.205
		c0.665-0.997,1.015-2.153,1.015-3.483c0-1.645-0.473-2.993-1.435-4.043c-0.945-1.068-2.153-1.733-3.623-1.995
		c-1.068-0.21-3.22-0.315-6.475-0.315H159.312z M191.932,158.551v-44.73h9.048v17.623h17.623v-17.623h9.065v44.73h-9.065v-19.548
		H200.98v19.548H191.932z M237.047,158.551v-44.73h14.473c5.495,0,9.065,0.228,10.728,0.665c2.555,0.683,4.708,2.135,6.44,4.393
		c1.733,2.24,2.59,5.145,2.59,8.715c0,2.748-0.508,5.04-1.488,6.93c-0.997,1.873-2.258,3.343-3.798,4.41
		c-1.523,1.05-3.08,1.768-4.673,2.118c-2.153,0.42-5.268,0.63-9.345,0.63h-5.88v16.87H237.047z M246.095,121.381v12.74h4.935
		c3.553,0,5.915-0.227,7.105-0.7s2.135-1.19,2.818-2.205c0.665-0.997,1.015-2.153,1.015-3.483c0-1.645-0.473-2.993-1.435-4.043
		c-0.945-1.068-2.153-1.733-3.623-1.995c-1.068-0.21-3.22-0.315-6.475-0.315H246.095z"/>
	<g>
		<path style="fill:#857E8A;" d="M186.122,238.456l-30.363-13.195v-7.315l30.363-13.143v8.61l-21.193,8.103l21.193,8.4V238.456z
			 M211.725,232.139h-7.735c-0.018-1.103-0.035-1.768-0.035-2.013c0-2.503,0.42-4.55,1.26-6.178c0.823-1.61,2.468-3.413,4.953-5.443
			c2.485-2.013,3.973-3.325,4.445-3.955c0.753-0.98,1.137-2.083,1.137-3.273c0-1.628-0.665-3.045-1.995-4.2
			c-1.313-1.19-3.098-1.768-5.355-1.768c-2.153,0-3.973,0.613-5.425,1.838c-1.453,1.243-2.45,3.115-3.01,5.635l-7.788-0.98
			c0.228-3.623,1.768-6.685,4.62-9.205c2.853-2.538,6.615-3.78,11.253-3.78c4.883,0,8.768,1.277,11.655,3.815
			c2.888,2.555,4.323,5.513,4.323,8.89c0,1.873-0.525,3.658-1.592,5.32c-1.05,1.68-3.308,3.955-6.79,6.843
			c-1.785,1.488-2.905,2.695-3.343,3.588C211.882,228.184,211.69,229.811,211.725,232.139z M203.99,243.531v-8.47h7.735v8.47H203.99
			z M231.01,211.436h7.91v4.708c1.033-1.61,2.415-2.905,4.165-3.903c1.75-0.998,3.71-1.488,5.828-1.488
			c3.728,0,6.895,1.452,9.485,4.393c2.608,2.905,3.903,7,3.903,12.215c0,5.373-1.313,9.538-3.92,12.513
			c-2.625,2.975-5.793,4.463-9.538,4.463c-1.768,0-3.378-0.35-4.813-1.068c-1.435-0.7-2.958-1.908-4.55-3.623v16.065h-8.47V211.436z
			 M239.357,226.976c0,3.623,0.7,6.3,2.135,8.033c1.435,1.715,3.168,2.573,5.215,2.573c1.96,0,3.605-0.788,4.918-2.38
			c1.313-1.575,1.96-4.183,1.96-7.805c0-3.378-0.682-5.88-2.03-7.508c-1.33-1.645-3.01-2.468-4.988-2.468
			c-2.083,0-3.798,0.805-5.163,2.415C240.04,221.446,239.357,223.826,239.357,226.976z M277.385,199.256v16.398
			c2.748-3.273,6.038-4.9,9.87-4.9c1.96,0,3.745,0.35,5.32,1.085c1.575,0.718,2.765,1.645,3.57,2.783
			c0.805,1.12,1.348,2.363,1.628,3.728c0.298,1.383,0.455,3.5,0.455,6.37v18.813h-8.47v-16.923c0-3.36-0.175-5.495-0.49-6.405
			c-0.332-0.91-0.91-1.628-1.733-2.153c-0.823-0.543-1.855-0.805-3.115-0.805c-1.418,0-2.677,0.333-3.798,1.033
			c-1.138,0.683-1.943,1.715-2.467,3.08c-0.525,1.383-0.77,3.413-0.77,6.108v16.065h-8.488v-44.275H277.385z M306.558,211.436h7.91
			v4.708c1.033-1.61,2.415-2.905,4.165-3.903c1.75-0.998,3.71-1.488,5.845-1.488c3.71,0,6.878,1.452,9.485,4.393
			c2.59,2.905,3.885,7,3.885,12.215c0,5.373-1.295,9.538-3.92,12.513c-2.625,2.975-5.793,4.463-9.52,4.463
			c-1.785,0-3.395-0.35-4.83-1.068c-1.435-0.7-2.958-1.908-4.55-3.623v16.065h-8.47V211.436z M314.905,226.976
			c0,3.623,0.717,6.3,2.152,8.033c1.418,1.715,3.15,2.573,5.198,2.573c1.978,0,3.605-0.788,4.918-2.38
			c1.313-1.575,1.96-4.183,1.96-7.805c0-3.378-0.665-5.88-2.03-7.508c-1.33-1.645-2.992-2.468-4.988-2.468
			c-2.083,0-3.798,0.805-5.163,2.415C315.588,221.446,314.905,223.826,314.905,226.976z"/>
		<path style="fill:#857E8A;" d="M243.75,382.989h-7.735c-0.018-1.12-0.035-1.785-0.035-2.03c0-2.503,0.42-4.55,1.26-6.16
			c0.823-1.61,2.468-3.43,4.953-5.443c2.485-2.013,3.973-3.343,4.445-3.955c0.753-0.997,1.138-2.083,1.138-3.273
			c0-1.645-0.665-3.045-1.995-4.218c-1.313-1.172-3.098-1.767-5.355-1.767c-2.153,0-3.973,0.612-5.425,1.855
			c-1.453,1.225-2.45,3.098-3.01,5.635l-7.788-0.997c0.228-3.623,1.768-6.685,4.62-9.205s6.615-3.78,11.253-3.78
			c4.883,0,8.768,1.278,11.655,3.833c2.888,2.538,4.323,5.495,4.323,8.89c0,1.855-0.525,3.64-1.592,5.32
			c-1.05,1.663-3.308,3.938-6.79,6.825c-1.785,1.487-2.905,2.695-3.343,3.605C243.907,379.034,243.715,380.644,243.75,382.989z
			 M236.015,394.364v-8.47h7.735v8.47H236.015z M261.67,389.359v-8.54l21.175-8.348l-21.175-8.278v-8.488l30.363,13.16v7.263
			L261.67,389.359z"/>
	</g>
</g>
<path style="fill:#2DAAE2;" d="M281.585,273.631h69.335v11.848h-69.335V273.631z M281.585,311.852h48.388v11.848h-48.388V311.852z
	 M161.097,311.852h99.785v11.848h-99.785V311.852z M161.097,292.356H312.63v11.848H161.097V292.356z M161.097,273.631h99.785v11.848
	h-99.785V273.631z"/>
<g>
</g>
<g>
</g>
<g>
</g>
<g>
</g>
<g>
</g>
<g>
</g>
<g>
</g>
<g>
</g>
<g>
</g>
<g>
</g>
<g>
</g>
<g>
</g>
<g>
</g>
<g>
</g>
<g>
</g>
</svg>
